<svg xmlns="http://www.w3.org/2000/svg" viewBox="0 0 400 140" width="400" height="140" role="img" aria-label="Pinned repo: zhengjs1225/feishu-bridge-poc">
  <title>zhengjs1225/feishu-bridge-poc — AI 友好的飞书协作工具 — CLI + MCP 双接口</title>
  <rect x="0.5" y="0.5" width="399" height="139" rx="6" ry="6" fill="#141321" stroke="#e4e2e2" stroke-opacity="0.2"/>
  <g font-family="-apple-system, BlinkMacSystemFont, 'Segoe UI', Helvetica, Arial, sans-serif">
    <g transform="translate(22, 22)"><path d="M2 2.5A2.5 2.5 0 0 1 4.5 0h8.75a.75.75 0 0 1 .75.75v12.5a.75.75 0 0 1-.75.75h-2.5a.75.75 0 1 1 0-1.5h1.75v-2h-8a1 1 0 0 0-.714 1.7.75.75 0 0 1-1.072 1.05A2.495 2.495 0 0 1 2 11.5Zm10.5-1h-8a1 1 0 0 0-1 1v6.708A2.486 2.486 0 0 1 4.5 9h8ZM5 12.25a.25.25 0 0 1 .25-.25h3.5a.25.25 0 0 1 .25.25v3.25a.25.25 0 0 1-.4.2l-1.45-1.087a.249.249 0 0 0-.3 0L5.4 15.7a.25.25 0 0 1-.4-.2Z" fill="#fe428e"/></g>
    <text x="44" y="36" fill="#fe428e" font-size="17" font-weight="600">feishu-bridge-poc</text>
    <text x="22" y="66" fill="#a9fef7" font-size="12.5">AI 友好的飞书协作工具 — CLI + MCP 双接口</text>
    <text x="22" y="86" fill="#a9fef7" font-size="12.5"></text>
    <circle cx="28" cy="118" r="6" fill="#3178C6"/>
    <text x="40" y="122" fill="#a9fef7" font-size="12">TypeScript</text>
    <g transform="translate(167, 110)">
      <path d="M8 .25a.75.75 0 0 1 .673.418l1.882 3.815 4.21.612a.75.75 0 0 1 .416 1.279l-3.046 2.97.719 4.192a.751.751 0 0 1-1.088.791L8 12.347l-3.766 1.98a.75.75 0 0 1-1.088-.79l.72-4.194L.818 6.374a.75.75 0 0 1 .416-1.28l4.21-.611L7.327.668A.75.75 0 0 1 8 .25Z" fill="#f8d847"/>
    </g>
    <text x="187" y="122" fill="#a9fef7" font-size="12">0</text>
    <g transform="translate(227, 110)">
      <path d="M5 5.372v.878c0 .414.336.75.75.75h4.5a.75.75 0 0 0 .75-.75v-.878a2.25 2.25 0 1 1 1.5 0v.878a2.25 2.25 0 0 1-2.25 2.25h-1.5v2.128a2.251 2.251 0 1 1-1.5 0V8.5h-1.5A2.25 2.25 0 0 1 3.5 6.25v-.878a2.25 2.25 0 1 1 1.5 0ZM5 3.25a.75.75 0 1 0-1.5 0 .75.75 0 0 0 1.5 0Zm6.75.75a.75.75 0 1 0 0-1.5.75.75 0 0 0 0 1.5Zm-3 8.75a.75.75 0 1 0-1.5 0 .75.75 0 0 0 1.5 0Z" fill="#f8d847"/>
    </g>
    <text x="247" y="122" fill="#a9fef7" font-size="12">0</text>
  </g>
</svg>
